<!-- Generated by IcoMoon.io -->
<svg version="1.1" xmlns="http://www.w3.org/2000/svg" width="22" height="22" viewBox="0 0 22 22">
<title>plus</title>
<path fill="#898c91" d="M21.313 8.25h-7.563v-7.563c0-0.38-0.308-0.688-0.688-0.688h-4.125c-0.38 0-0.688 0.308-0.688 0.688v7.563h-7.563c-0.38 0-0.688 0.308-0.688 0.688v4.125c0 0.38 0.308 0.688 0.688 0.688h7.563v7.563c0 0.38 0.308 0.688 0.688 0.688h4.125c0.38 0 0.688-0.308 0.688-0.688v-7.563h7.563c0.38 0 0.688-0.308 0.688-0.688v-4.125c0-0.38-0.308-0.688-0.688-0.688z"></path>
</svg>
